<svg width="1440" height="494" viewBox="0 0 1440 494" fill="none" xmlns="http://www.w3.org/2000/svg">
<path fill-rule="evenodd" clip-rule="evenodd" d="M1134.03 98.4001L1132.18 95.5997L1110.24 114.008L1111.44 116.172C1113.28 119.469 1114.12 122.708 1114.08 125.926L1114.08 125.951L1114.08 125.975C1114.09 129.139 1113.22 132.378 1111.35 135.728L1111.35 135.737L1111.34 135.746C1109.53 139.038 1106.79 142.275 1103.03 145.433C1098.71 149.055 1094.48 151.283 1090.34 152.277C1086.14 153.21 1082.17 152.95 1078.34 151.527C1074.51 150.106 1070.92 147.494 1067.59 143.525C1064.26 139.557 1062.31 135.568 1061.58 131.553C1060.84 127.539 1061.3 123.618 1062.99 119.715L1063 119.694L1063.01 119.674C1064.66 115.717 1067.55 111.914 1071.87 108.295C1075.62 105.147 1079.29 103.05 1082.88 101.899L1082.91 101.888L1082.95 101.876C1086.57 100.614 1089.91 100.32 1093.03 100.88L1093.05 100.884L1093.07 100.888C1096.26 101.409 1099.28 102.781 1102.15 105.097L1104.07 106.648L1126 88.2481L1123.57 85.9343C1117.49 80.1457 1110.56 76.3477 1102.8 74.6269C1095.08 72.9146 1087.11 73.2655 1078.93 75.6081C1070.72 77.9594 1062.89 82.3026 1055.45 88.5462C1047.19 95.4751 1041.15 103.2 1037.45 111.742L1037.44 111.754C1033.81 120.228 1032.62 128.869 1033.92 137.618C1035.23 146.406 1039.11 154.578 1045.44 162.115C1051.76 169.651 1059.14 174.897 1067.56 177.711C1075.95 180.513 1084.67 180.838 1093.65 178.733L1093.66 178.73C1102.71 176.567 1111.37 171.957 1119.63 165.028C1127.07 158.784 1132.71 151.832 1136.45 144.154C1140.17 136.505 1141.9 128.712 1141.56 120.813L1141.56 120.803L1141.56 120.794C1141.16 112.813 1138.63 105.335 1134.03 98.4001ZM1077.29 154.34C1081.69 155.974 1086.27 156.261 1091.02 155.2C1095.71 154.077 1100.36 151.588 1104.96 147.731C1108.94 144.389 1111.95 140.876 1113.97 137.191C1116.06 133.456 1117.1 129.714 1117.08 125.965C1117.13 122.164 1116.13 118.414 1114.06 114.713L1131.53 100.057C1132.1 100.909 1132.63 101.769 1133.12 102.637C1136.42 108.398 1138.24 114.5 1138.56 120.944C1138.88 128.298 1137.28 135.596 1133.75 142.84C1130.22 150.083 1124.87 156.713 1117.7 162.73C1109.73 169.415 1101.49 173.776 1092.96 175.812C1084.5 177.797 1076.35 177.482 1068.51 174.866C1060.68 172.25 1053.75 167.357 1047.74 160.186C1041.72 153.016 1038.1 145.346 1036.89 137.176C1035.67 129.007 1036.78 120.926 1040.2 112.935C1043.69 104.893 1049.41 97.5293 1057.38 90.8443C1064.55 84.8278 1072.01 80.7104 1079.76 78.4921C1087.5 76.2738 1094.97 75.9617 1102.15 77.5557C1108.41 78.943 1114.1 81.7868 1119.24 86.0873C1120.01 86.7281 1120.76 87.4014 1121.5 88.1069L1104.04 102.762C1100.8 100.151 1097.31 98.5396 1093.56 97.9275C1089.87 97.264 1086 97.6356 1081.96 99.0424C1077.93 100.336 1073.92 102.655 1069.94 105.997C1065.34 109.854 1062.11 114.029 1060.24 118.521C1058.32 122.953 1057.78 127.477 1058.63 132.094C1059.47 136.711 1061.69 141.164 1065.29 145.454C1068.89 149.744 1072.89 152.706 1077.29 154.34Z" fill="white"/>
<path fill-rule="evenodd" clip-rule="evenodd" d="M1190.77 74.9418C1195.55 70.9308 1198.99 66.6888 1201.08 62.2157C1203.13 57.6814 1203.78 53.1108 1203.05 48.5039C1202.38 43.8456 1200.27 39.4022 1196.72 35.1736C1193.17 30.945 1189.16 28.0957 1184.69 26.6257C1180.28 25.1042 1175.69 24.9866 1170.92 26.2729C1166.1 27.4979 1161.3 30.116 1156.52 34.1269C1151.81 38.0865 1148.42 42.3335 1146.38 46.8678C1144.29 51.3409 1143.57 55.9066 1144.25 60.5649C1144.92 65.2231 1147.03 69.6666 1150.57 73.8951C1154.12 78.1237 1158.13 80.973 1162.6 82.4431C1167.07 83.9131 1171.72 84.0357 1176.54 82.8106C1181.31 81.5243 1186.05 78.9014 1190.77 74.9418ZM1200.08 48.9318L1200.08 48.9535L1200.09 48.9751C1200.72 52.9585 1200.17 56.9321 1198.36 60.9631C1196.49 64.9444 1193.37 68.8479 1188.84 72.6437C1184.39 76.384 1180.03 78.7581 1175.78 79.9085C1171.49 80.9956 1167.43 80.8727 1163.54 79.5932C1159.69 78.3259 1156.12 75.8425 1152.87 71.9668C1149.62 68.0911 1147.79 64.1528 1147.21 60.1369C1146.63 56.0874 1147.24 52.1109 1149.1 48.1402L1149.11 48.1204L1149.12 48.1004C1150.93 44.0636 1154 40.1623 1158.45 36.4251C1162.97 32.6322 1167.38 30.2698 1171.66 29.1805L1171.68 29.1751L1171.71 29.1694C1175.93 28.0297 1179.91 28.1477 1183.71 29.4616L1183.73 29.4687L1183.76 29.4756C1187.61 30.7429 1191.17 33.2263 1194.42 37.102C1197.68 40.9777 1199.5 44.916 1200.08 48.9318Z" fill="white"/>
<path fill-rule="evenodd" clip-rule="evenodd" d="M1238.32 107.04H1261.36C1267.12 107.04 1272.12 108.08 1276.36 110.16C1280.6 112.24 1283.88 115.12 1286.2 118.8C1288.52 122.48 1289.68 126.88 1289.68 132C1289.68 137.04 1288.52 141.44 1286.2 145.2C1283.88 148.88 1280.6 151.76 1276.36 153.84C1272.12 155.92 1267.12 156.96 1261.36 156.96H1238.32V107.04ZM1261.36 153.96H1241.32V110.04H1261.36C1266.76 110.04 1271.29 111.015 1275.04 112.853C1278.82 114.71 1281.66 117.23 1283.66 120.4C1285.63 123.522 1286.68 127.345 1286.68 132C1286.68 136.558 1285.64 140.392 1283.65 143.612C1281.66 146.776 1278.82 149.292 1275.04 151.147C1271.29 152.986 1266.76 153.96 1261.36 153.96Z" fill="white"/>
<path fill-rule="evenodd" clip-rule="evenodd" d="M1179.41 106.783L1179.42 106.78C1188.59 104.512 1197.36 99.8032 1205.74 92.7753C1208.29 90.6354 1210.63 88.424 1212.76 86.1406V180H1259.68C1270.6 180 1280.29 178.056 1288.69 174.07C1297.06 170.097 1303.66 164.509 1308.39 157.289C1313.22 149.95 1315.6 141.485 1315.6 132C1315.6 122.445 1313.22 113.974 1308.38 106.706C1303.65 99.4883 1297.05 93.9021 1288.69 89.93C1280.29 85.9441 1270.6 84.0001 1259.68 84.0001H1214.68C1218.62 79.4047 1221.74 74.5276 1224.01 69.3638C1227.82 60.7512 1229.15 52.0102 1227.92 43.1994C1226.74 34.299 1222.91 26.0614 1216.58 18.5126C1210.24 10.9638 1202.79 5.7655 1194.23 3.05895C1185.77 0.312482 1176.93 0.102989 1167.79 2.36406C1158.68 4.58091 1149.93 9.26752 1141.56 16.2934C1133.18 23.3213 1127.02 31.1417 1123.2 39.7759L1123.19 39.7869C1119.44 48.3558 1118.14 57.073 1119.38 65.8808C1120.62 74.7275 1124.48 82.9346 1130.81 90.4791C1137.14 98.0235 1144.55 103.246 1153.05 106.006C1161.51 108.754 1170.32 108.994 1179.41 106.783ZM1224.94 43.6051C1226.1 51.8264 1224.87 60.0096 1221.26 68.1548C1217.72 76.2485 1211.9 83.6893 1203.81 90.4772C1195.72 97.265 1187.35 101.729 1178.7 103.868C1170.11 105.956 1161.87 105.718 1153.98 103.153C1146.08 100.588 1139.13 95.7209 1133.11 88.5507C1127.09 81.3805 1123.51 73.6848 1122.35 65.4636C1121.2 57.2424 1122.39 49.0849 1125.94 40.9911C1129.55 32.8459 1135.4 25.3794 1143.49 18.5916C1151.58 11.8037 1159.92 7.36581 1168.5 5.27783C1177.15 3.13843 1185.42 3.35107 1193.32 5.91575C1201.28 8.42902 1208.26 13.2707 1214.28 20.4409C1220.3 27.6111 1223.85 35.3325 1224.94 43.6051ZM1312.6 132C1312.6 140.96 1310.36 148.84 1305.88 155.64C1301.48 162.36 1295.32 167.6 1287.4 171.36C1279.48 175.12 1270.24 177 1259.68 177H1215.76V87.0001H1259.68C1270.24 87.0001 1279.48 88.8801 1287.4 92.6401C1295.32 96.4001 1301.48 101.64 1305.88 108.36C1310.36 115.08 1312.6 122.96 1312.6 132Z" fill="white"/>
<path fill-rule="evenodd" clip-rule="evenodd" d="M1403.7 120.6H1352.1L1350.16 108.6H1406.94V84.0001H1318.72L1326.14 132L1318.72 180H1407.54V155.4H1350.16L1352.1 143.4H1403.7V120.6ZM1349.54 123.6L1346.64 105.6H1403.94V87.0001H1322.22L1329.18 132L1322.22 177H1404.54V158.4H1346.64L1349.54 140.4H1400.7V123.6H1349.54Z" fill="white"/>
<path d="M148.183 336.784L153.6 320.775C172.079 321.322 187.267 325.017 199.161 331.858C211.269 338.426 220.296 347.73 226.244 359.771C232.191 371.538 235.165 385.221 235.165 400.82C235.165 417.513 232.191 432.427 226.244 445.563C220.296 458.425 211.375 468.687 199.48 476.349C187.798 483.738 173.141 487.432 155.511 487.432H-21L-2.52046 329.395L-21 179.568H149.139C171.23 179.568 188.435 186.272 200.755 199.682C213.074 212.817 219.234 231.152 219.234 254.687C219.234 267.549 216.898 279.863 212.225 291.63C207.552 303.398 200.011 313.386 189.603 321.596C179.407 329.532 165.601 334.595 148.183 336.784ZM44.3156 467.729L18.8266 427.912H137.669C147.228 427.912 154.662 424.902 159.972 418.881C165.282 412.861 167.937 404.514 167.937 393.841C167.937 383.169 165.07 374.685 159.335 368.391C153.6 361.824 145.103 358.54 133.846 358.54H35.7131V300.251H124.925C132.571 300.251 138.944 297.377 144.041 291.63C149.352 285.61 152.007 277.537 152.007 267.412C152.007 259.202 149.776 252.497 145.316 247.298C140.855 241.825 134.483 239.088 126.199 239.088H19.1452L44.3156 199.271L60.5649 329.395L44.3156 467.729Z" fill="url(#paint0_linear_2218_19)"/>
<path d="M286.367 428.322V359.771H451.09V428.322H286.367ZM413.493 179.568L522.14 487.432H451.727L360.604 215.691H379.72L288.278 487.432H217.865L326.512 179.568H413.493Z" fill="url(#paint1_linear_2218_19)"/>
<path d="M506.185 386.453H573.412C574.474 394.936 577.554 402.325 582.652 408.619C587.75 414.913 594.547 419.839 603.043 423.396C611.752 426.68 621.947 428.322 633.63 428.322C649.773 428.322 662.517 425.722 671.863 420.523C681.209 415.05 685.882 407.114 685.882 396.715C685.882 388.779 683.227 382.621 677.917 378.243C672.607 373.864 662.411 370.717 647.33 368.802L602.724 363.465C569.801 359.634 545.905 350.056 531.036 334.731C516.168 319.133 508.734 298.198 508.734 271.927C508.734 250.582 513.513 232.52 523.071 217.743C532.842 202.965 546.436 191.882 563.854 184.494C581.484 176.831 601.981 173 625.346 173C648.286 173 668.677 177.242 686.52 185.725C704.362 193.935 718.487 205.702 728.895 221.027C739.515 236.352 745.25 254.139 746.1 274.39H679.191C678.342 267.001 675.581 260.707 670.908 255.508C666.447 250.035 660.287 245.93 652.428 243.193C644.569 240.183 635.117 238.678 624.071 238.678C609.203 238.678 597.414 241.277 588.705 246.477C579.997 251.403 575.642 258.792 575.642 268.643C575.642 275.758 578.191 281.505 583.289 285.884C588.599 290.262 598.051 293.272 611.646 294.914L659.119 301.072C681.847 303.808 700.007 308.597 713.602 315.439C727.196 322.006 737.073 331.174 743.233 342.941C749.392 354.708 752.472 369.349 752.472 386.863C752.472 408.482 747.481 427.364 737.498 443.51C727.514 459.382 713.495 471.834 695.441 480.864C677.386 489.621 656.358 494 632.355 494C607.716 494 585.944 489.621 567.04 480.864C548.348 471.834 533.692 459.246 523.071 443.1C512.451 426.68 506.822 407.798 506.185 386.453Z" fill="url(#paint2_linear_2218_19)"/>
<path d="M804.299 428.322V359.771H969.022V428.322H804.299ZM931.426 179.568L1040.07 487.432H969.659L878.536 215.691H897.653L806.211 487.432H735.797L844.444 179.568H931.426Z" fill="url(#paint3_linear_2218_19)"/>
<path d="M1112.73 179.568V449.667L1083.1 411.903H1261.84V487.432H1046.77V179.568H1112.73Z" fill="url(#paint4_linear_2218_19)"/>
<path d="M1303.61 216.922H1369.88V487.432H1303.61V216.922ZM1212.48 179.568H1461V255.097H1212.48V179.568Z" fill="url(#paint5_linear_2218_19)"/>
<defs>
<linearGradient id="paint0_linear_2218_19" x1="664.425" y1="173" x2="664.425" y2="462.263" gradientUnits="userSpaceOnUse">
<stop stop-color="white"/>
<stop offset="1" stop-color="#081FE3"/>
</linearGradient>
<linearGradient id="paint1_linear_2218_19" x1="664.425" y1="173" x2="664.425" y2="462.263" gradientUnits="userSpaceOnUse">
<stop stop-color="white"/>
<stop offset="1" stop-color="#081FE3"/>
</linearGradient>
<linearGradient id="paint2_linear_2218_19" x1="664.425" y1="173" x2="664.425" y2="462.263" gradientUnits="userSpaceOnUse">
<stop stop-color="white"/>
<stop offset="1" stop-color="#081FE3"/>
</linearGradient>
<linearGradient id="paint3_linear_2218_19" x1="664.425" y1="173" x2="664.425" y2="462.263" gradientUnits="userSpaceOnUse">
<stop stop-color="white"/>
<stop offset="1" stop-color="#081FE3"/>
</linearGradient>
<linearGradient id="paint4_linear_2218_19" x1="664.425" y1="173" x2="664.425" y2="462.263" gradientUnits="userSpaceOnUse">
<stop stop-color="white"/>
<stop offset="1" stop-color="#081FE3"/>
</linearGradient>
<linearGradient id="paint5_linear_2218_19" x1="664.425" y1="173" x2="664.425" y2="462.263" gradientUnits="userSpaceOnUse">
<stop stop-color="white"/>
<stop offset="1" stop-color="#081FE3"/>
</linearGradient>
</defs>
</svg>
