<svg width="53" height="60" viewBox="0 0 53 60" fill="none" xmlns="http://www.w3.org/2000/svg">
<g clip-path="url(#clip0_256_5)">
<path d="M25.8677 0.177527C25.1793 0.488936 24.7383 0.918466 24.7383 1.26209C24.7383 1.62719 25.2223 2.29296 26.2441 3.35605C26.6421 3.7641 27.3627 4.548 27.8468 5.09565C28.8578 6.2339 29.1267 6.45941 29.6538 6.64196C30.1378 6.80303 31.0735 6.70639 31.5898 6.44867C32.2029 6.148 32.418 5.77216 32.4611 4.93457C32.5256 3.72115 32.2459 3.45269 28.7718 1.38021C27.5886 0.671486 26.5453 0.0701442 26.4592 0.0379295C26.3732 0.00571489 26.1043 0.0701442 25.8677 0.177527Z" fill="white"/>
<path d="M21.8343 2.80801C20.5758 3.25902 18.6935 4.28989 18.4354 4.65499C18.0589 5.23486 17.8115 6.17982 17.8008 7.11405C17.8008 7.87647 17.8438 8.05902 18.145 8.68184C18.672 9.74492 19.3819 10.4 20.6834 11.0228C22.3506 11.8281 23.4584 11.9677 24.2759 11.4738C24.5878 11.2805 26.4056 9.20801 26.9864 8.38116C27.5027 7.65096 27.3198 7.14627 25.8355 5.17043C24.0392 2.76506 23.2433 2.30331 21.8343 2.80801Z" fill="white"/>
<path d="M34.0427 4.48292C34.0104 4.54735 33.9459 5.18091 33.9136 5.91111C33.8491 7.21044 33.8491 7.22117 34.1395 7.5648C34.4514 7.94064 37.4308 9.46547 38.1085 9.58359C38.7108 9.70171 39.539 9.46547 39.7971 9.10037C40.1521 8.59567 40.0876 8.02654 39.6143 7.51111C39.2378 7.10305 36.5596 5.51379 34.8279 4.67621C34.1288 4.33258 34.1288 4.33258 34.0427 4.48292Z" fill="white"/>
<path d="M14.6837 6.56695C14.3933 6.70655 13.5759 7.15756 12.8767 7.58709C12.1776 8.00588 11.4139 8.44615 11.1773 8.56427L10.7578 8.77904V9.77769C10.7686 10.3146 10.8116 11.2703 10.8654 11.8931C10.9837 13.171 11.1235 13.3965 11.8227 13.3965C12.2852 13.3965 12.7799 13.1066 14.3395 11.9146C15.7486 10.83 15.641 10.9267 15.9637 10.4542C16.2326 10.0569 16.2434 9.97098 16.2434 8.70387C16.2434 7.18977 16.1143 6.73877 15.6088 6.48105C15.2108 6.27702 15.3291 6.26628 14.6837 6.56695Z" fill="white"/>
<path d="M29.4269 8.67158C28.4696 9.04741 28.0716 9.40178 26.1786 11.6246C25.2213 12.7306 24.662 13.5253 24.5867 13.8474C24.4899 14.2555 24.748 14.8139 25.1783 15.1467C25.63 15.4904 30.4379 17.7239 31.4813 18.0783C32.5891 18.4541 33.1484 18.4219 34.6758 17.8957C36.1709 17.3803 37.2787 16.9078 37.5691 16.6394C38.1177 16.1669 38.677 14.1159 38.5587 13.0743C38.4619 12.2152 38.0639 11.4635 37.4939 11.0555C36.9883 10.6904 35.7406 10.1642 32.8903 9.09037C30.9973 8.38164 30.3734 8.30648 29.4269 8.67158Z" fill="white"/>
<path d="M41.7885 9.24022C40.4978 9.83083 39.9062 11.4094 39.9062 14.2335C39.9062 15.9838 40.1106 16.3704 41.7025 17.7127C43.8107 19.4845 44.5636 19.9033 45.3488 19.7852C45.6499 19.7422 45.9511 19.6134 46.1447 19.4308L46.4674 19.1409L46.4781 15.3718C46.4889 12.0751 46.4674 11.5597 46.3168 11.259C46.1232 10.8939 45.1767 10.153 44.1226 9.56237C43.3374 9.1221 42.3479 8.98251 41.7885 9.24022Z" fill="white"/>
<path d="M8.06697 9.88446C2.20497 13.2455 1.15088 13.8791 0.666865 14.4053C0.129067 14.9851 -0.0322722 15.5435 0.0215076 16.5959C0.0537755 17.3046 0.0860434 17.4227 0.354942 17.6482C0.742157 17.9811 1.12937 17.9704 1.76397 17.6375C2.74277 17.122 6.94835 15.2428 8.04545 14.8455C8.75535 14.5771 9.19634 14.3516 9.27164 14.2227C9.46524 13.8469 9.21786 9.42271 8.99198 9.42271C8.92744 9.42271 8.50796 9.62674 8.06697 9.88446Z" fill="white"/>
<path d="M16.4986 12.086C15.2832 12.9773 14.8206 13.3102 13.5514 14.1585C11.5508 15.5115 11.4648 15.6511 11.5293 17.5196C11.5723 18.9585 11.809 19.678 12.336 20.0216C12.4866 20.1182 13.4869 20.4618 14.5517 20.784C17.8323 21.7612 18.3916 21.6538 19.5533 19.8283C19.8867 19.3021 20.5966 18.2498 21.1129 17.4981C21.6399 16.7464 22.1562 15.9518 22.2745 15.737C22.6833 14.9424 22.4251 14.0511 21.6184 13.4498C21.4141 13.2994 20.5321 12.784 19.6608 12.3115C17.6925 11.2484 17.6387 11.2484 16.4986 12.086Z" fill="white"/>
<path d="M48.4567 12.9877C47.9834 13.2454 47.9727 13.2884 47.9727 16.628C47.9727 18.679 48.0157 19.9246 48.091 20.0857C48.1985 20.3327 49.1773 21.0414 49.898 21.3958C50.0916 21.4924 50.7585 21.9327 51.3715 22.3622C53.0495 23.5649 52.9204 23.5541 52.9312 22.5018C52.9419 22.0078 52.9419 20.2038 52.9204 18.4964C52.8989 15.7045 52.8774 15.3394 52.6945 14.985C52.3503 14.3085 51.1672 13.4924 49.941 13.0843C49.1988 12.8374 48.7794 12.8051 48.4567 12.9877Z" fill="white"/>
<path d="M8.24982 16.521C6.88382 16.8431 0.817453 19.7103 0.301167 20.2687L0 20.5908V24.1989C0 26.4646 0.0430239 27.8713 0.10756 28.0109C0.279655 28.3116 0.785185 28.5371 1.31223 28.5371C1.807 28.5264 2.33404 28.3116 4.19483 27.3559C5.79746 26.5291 7.14196 25.9277 7.99168 25.6485C8.43267 25.4982 8.77687 25.3156 8.87367 25.176C8.95972 25.0472 9.07803 24.5962 9.14257 24.1881C9.2071 23.7693 9.44374 22.8995 9.65885 22.2552L10.0568 21.074L10.0461 19.3022C10.0353 17.874 9.99229 17.4552 9.85246 17.176C9.54054 16.5747 8.97047 16.3492 8.24982 16.521Z" fill="white"/>
<path d="M23.5883 17.0044C23.2226 17.187 22.6955 17.9064 21.351 20.0541C20.0173 22.191 19.6301 22.9964 19.6408 23.6407C19.6516 24.8971 20.5336 26.0246 22.7493 27.6138C24.3304 28.7413 25.1264 29.1172 25.9653 29.1172C26.3848 29.1172 26.7613 29.042 26.9979 28.9239C27.2023 28.8165 28.1058 28.0219 28.9878 27.1521C29.8805 26.293 30.9238 25.3051 31.3111 24.9722L32.0317 24.3601L32.107 22.8031C32.1823 21.332 32.1715 21.2138 31.9457 20.7628C31.8166 20.4944 31.5584 20.14 31.3756 19.9789C31.0422 19.6997 28.1488 18.2716 25.7287 17.187C24.965 16.8541 24.04 16.7682 23.5883 17.0044Z" fill="white"/>
<path d="M38.293 18.2927C37.9704 18.3786 36.97 18.7437 36.0665 19.0981C33.9369 19.9357 33.668 20.2471 33.668 21.8364C33.668 23.2216 34.2703 24.231 35.3459 24.6176C41.5628 26.8404 42.1544 26.9156 43.1332 25.6162C43.5957 24.9827 44.7466 22.8243 44.7466 22.5773C44.7466 22.1478 44.2088 21.5894 42.8213 20.5478C42.0146 19.9464 41.0681 19.227 40.7131 18.937C39.6483 18.0887 39.3471 18.0135 38.293 18.2927Z" fill="white"/>
<path d="M12.2281 21.9865C11.7763 22.0724 11.0987 22.5664 10.8944 22.9637C10.4426 23.8335 11.1417 26.2389 12.1205 27.2053C12.895 27.957 13.8845 28.204 14.6482 27.8496C15.0784 27.6456 16.595 26.4536 17.3372 25.7449C18.316 24.7999 18.2407 23.8335 17.1328 23.2429C16.4444 22.8778 13.7877 22.0295 13.1208 21.965C12.8519 21.9436 12.454 21.9543 12.2281 21.9865Z" fill="white"/>
<path d="M46.9374 22.2874C46.4104 22.6203 44.7217 25.4874 44.3667 26.6686C43.8289 28.4511 44.7539 30.5666 46.5932 31.78C48.5508 33.0686 49.7555 33.6807 50.3148 33.6914C51.3581 33.6914 52.0465 33.1652 52.6166 31.9196C52.8424 31.4149 52.8639 31.2216 52.8962 28.9129C52.9177 27.3558 52.8962 26.3035 52.8209 26.0565C52.6703 25.5411 52.0572 24.9397 50.4654 23.7048C48.454 22.1478 47.6688 21.8364 46.9374 22.2874Z" fill="white"/>
<path d="M32.6461 25.8955C31.9362 26.2283 30.8391 27.1626 30.0108 28.1183C28.989 29.2995 28.7632 29.9545 29.0858 30.7384C29.1719 30.9317 30.0108 32.0914 30.9466 33.3049C31.8824 34.529 32.8719 35.8391 33.1516 36.2471C33.4312 36.6445 33.8507 37.1706 34.0766 37.4176C34.7865 38.2122 35.3135 38.0404 37.4325 36.3545C38.0563 35.8606 39.2395 34.9371 40.0677 34.3142C42.0683 32.8002 42.7459 32.1773 43.0256 31.5975C43.2514 31.1357 43.2514 31.1035 43.0793 30.5022C42.7567 29.3854 42.3372 28.7948 41.6273 28.4297C41.4229 28.3223 40.0354 27.8283 38.5618 27.3236C37.0775 26.8189 35.3888 26.2391 34.7973 26.0243C33.528 25.5733 33.356 25.5626 32.6461 25.8955Z" fill="white"/>
<path d="M8.76701 26.9698C7.74519 27.292 3.20617 29.4933 2.82972 29.8477C2.48552 30.1698 2.51779 30.5349 2.96954 31.6302C3.52885 32.994 4.99166 35.947 5.27132 36.3121C5.63702 36.7631 6.07802 36.9135 6.70186 36.7953C7.34722 36.6772 7.5731 36.5161 8.68096 35.3886C9.15422 34.9054 10.0685 34.0249 10.6923 33.445C11.9938 32.2423 12.0906 32.0276 12.0261 30.6853C11.983 29.6866 11.7464 29.1819 10.8537 28.1618C10.2728 27.496 9.44463 26.8088 9.26178 26.8302C9.22951 26.8302 9.00364 26.8947 8.76701 26.9698Z" fill="white"/>
<path d="M17.8989 27.2053C17.673 27.3557 17.2643 27.6671 16.9954 27.8818C16.1995 28.5261 15.8445 28.7516 15.1346 29.0308C13.6611 29.6214 13.7041 30.1476 15.4573 33.2617C15.866 34.0026 16.4253 34.9906 16.6835 35.4523C17.3611 36.6657 18.2108 37.5033 18.996 37.7288C20.0071 38.0187 21.201 37.7718 21.7603 37.1489C22.169 36.7087 23.3522 33.3583 23.6103 31.9409C23.8039 30.9208 23.094 29.9221 20.9536 28.204C19.2649 26.851 18.7056 26.6684 17.8989 27.2053Z" fill="white"/>
<path d="M0.182851 31.5217C0.0215119 31.6935 0 32.0586 0 34.421C0 37.3418 0.0215119 37.4492 0.602334 37.4492C1.04333 37.4492 3.22679 36.6975 3.22679 36.5472C3.22679 36.3217 0.968036 31.8331 0.720649 31.5647C0.45175 31.2747 0.408726 31.2747 0.182851 31.5217Z" fill="white"/>
<path d="M25.3842 31.8334C24.9648 32.2844 24.7819 32.7677 24.3624 34.518C24.1581 35.3878 23.9107 36.3757 23.8246 36.6979C23.7386 37.02 23.6418 37.5569 23.5987 37.8898C23.4804 38.8777 23.7278 39.2643 25.7392 41.2938C27.7075 43.2804 28.1808 43.6777 28.6325 43.6777C28.9552 43.6777 29.3102 43.5274 29.5253 43.3126C29.9985 42.8402 32.3218 40.016 32.4509 39.7583C32.5477 39.5865 32.623 39.1999 32.6338 38.8992C32.6338 38.2012 32.3971 37.7824 31.0096 36.0858C27.7398 32.1019 27.2665 31.6509 26.2017 31.565C25.7069 31.5328 25.6316 31.5542 25.3842 31.8334Z" fill="white"/>
<path d="M43.2051 33.5081C42.7211 33.9377 41.4734 34.9149 40.43 35.6988C38.3434 37.2665 37.8594 37.7283 37.8594 38.2008C37.8594 38.641 38.3111 39.1243 38.9135 39.3175C39.7309 39.586 42.9039 40.3377 43.7752 40.4665C44.5066 40.5739 44.6679 40.5632 45.4746 40.3484C45.9586 40.2196 46.5179 40.0048 46.7115 39.8759C47.1418 39.586 47.7979 38.641 48.4432 37.3954C49.4866 35.3551 49.0348 34.6571 45.7112 33.2075C45.1089 32.939 44.485 32.7243 44.3452 32.7243C44.1839 32.7243 43.7752 33.0034 43.2051 33.5081Z" fill="white"/>
<path d="M11.992 34.1961C10.7228 35.27 8.63619 37.1706 8.2167 37.6538C7.36698 38.631 7.4853 39.329 8.7545 40.8753C9.13096 41.3263 9.77632 42.1747 10.2066 42.7653C11.1961 44.1075 11.465 44.3975 11.9598 44.6552C12.9171 45.1491 14.1648 44.7089 14.6703 43.6995C15.036 42.98 15.8857 40.8002 16.0363 40.2096C16.2944 39.1787 16.0578 38.4163 14.7778 36.0861C13.8851 34.4646 13.1967 33.38 13.0676 33.38C13.0139 33.38 12.5298 33.7451 11.992 34.1961Z" fill="white"/>
<path d="M51.7919 35.7852C51.1573 36.0752 51.0927 36.1611 50.1247 37.9329C48.8017 40.3383 48.8017 40.3597 49.2642 42.0671C49.4471 42.7436 49.7698 44.043 49.9741 44.945C50.5119 47.2859 50.4366 47.1571 51.1573 47.0819C51.964 46.996 52.5233 46.4591 52.8244 45.4819C52.889 45.2671 52.9428 43.3128 52.9643 40.6175L52.9858 36.1074L52.7384 35.8604C52.4695 35.592 52.2436 35.5705 51.7919 35.7852Z" fill="white"/>
<path d="M3.01167 38.1365C2.46311 38.3406 0.752917 39.2641 0.354947 39.5647L0 39.8224V42.4318C0 45.009 0 45.0305 0.279655 45.5889C0.623846 46.2869 0.946525 46.5339 3.11923 47.758C4.98001 48.7996 5.73293 49.2399 6.87306 49.9379C7.24952 50.1634 7.86261 50.4963 8.23907 50.6681L8.92745 50.9688L9.02425 50.5714C9.07803 50.3567 9.22861 49.7661 9.35769 49.2614C10.0676 46.5016 10.0461 46.7379 9.79868 45.9432C9.55129 45.1379 8.77686 43.7741 7.59371 42.099C7.15271 41.4547 6.43206 40.4023 6.00183 39.758C5.39949 38.856 5.10908 38.5231 4.77565 38.3298C4.21634 38.0292 3.49569 37.9432 3.01167 38.1365Z" fill="white"/>
<path d="M18.814 39.4902C18.0503 39.7157 17.9213 39.8982 17.1576 41.9492C16.125 44.7304 16.1358 44.8485 17.5878 45.9331C17.9428 46.2016 18.6204 46.7814 19.0937 47.2324C20.5887 48.6391 21.3417 49.015 22.5141 48.9183C22.8152 48.8969 24.0737 48.5425 25.2998 48.1452C27.7522 47.3506 28.0749 47.1573 28.0749 46.5022C28.0749 45.7291 27.6554 45.2351 25.2783 43.1949C24.6007 42.6042 23.7617 41.874 23.4068 41.5519C22.6216 40.8432 21.8042 40.2311 21.2448 39.9412C20.5027 39.5653 19.3088 39.3398 18.814 39.4902Z" fill="white"/>
<path d="M34.882 40.1772C34.1291 40.4241 33.7311 40.7355 32.3328 42.1959C30.6657 43.9463 30.4075 44.3865 30.4183 45.4496C30.429 46.298 30.5796 47.0819 30.8163 47.5436C31.2142 48.306 32.4512 49.004 34.5593 49.6376C36.0436 50.0778 37.0009 50.1315 37.7108 49.8094C38.1733 49.5946 38.2594 49.5087 41.2173 46.051C44.0891 42.7114 44.2504 42.4966 44.0676 42.3033C43.9815 42.2174 42.7769 41.8523 41.4001 41.4765C40.0126 41.1114 38.3562 40.6496 37.7001 40.4563C36.3125 40.0483 35.5059 39.9731 34.882 40.1772Z" fill="white"/>
<path d="M46.6606 42.2819C46.112 42.443 45.7678 42.7437 45.0149 43.6564C44.6062 44.1719 43.5306 45.4497 42.6486 46.5235C40.5189 49.0793 40.3683 49.2725 40.1209 49.8095C39.8628 50.4001 39.852 50.8081 40.1102 51.3665C40.3038 51.7853 40.8308 52.1611 41.2288 52.1611C41.5192 52.1611 42.0893 51.8712 43.8855 50.8081C44.8643 50.239 46.3164 49.4121 47.1123 48.9719C47.9083 48.5316 48.6504 48.0913 48.758 47.9947C48.9301 47.8121 48.9408 47.737 48.7795 46.5235C48.5859 45.0631 48.1556 43.2376 47.8867 42.7974C47.7469 42.5611 47.1446 42.1423 46.9832 42.1853C46.9725 42.1853 46.8219 42.2282 46.6606 42.2819Z" fill="white"/>
<path d="M13.6052 46.2651C12.6801 46.4692 11.7336 46.8235 11.6691 46.9846C11.583 47.2208 10.6365 51.9671 10.6688 51.9994C10.7978 52.1282 13.4223 53.6531 14.4656 54.2007C15.1755 54.5765 16.5523 55.339 17.5311 55.8974C20.3922 57.5403 21.6183 58.1739 21.6183 58.002C21.6183 57.6692 21.059 55.0383 20.8224 54.2329C20.6826 53.7604 20.4782 52.8692 20.3922 52.2571C20.091 50.3457 19.607 49.6369 17.316 47.7255C15.5735 46.2651 14.8528 45.9859 13.6052 46.2651Z" fill="white"/>
<path d="M26.8916 49.2725C26.3323 49.5087 25.4933 49.8523 25.0308 50.0242C23.4174 50.6255 22.6 51.0658 22.3203 51.4953C21.9869 52 21.9008 52.4295 22.0299 52.9664C22.7075 55.7369 23.4712 58.5718 23.6003 58.7758C23.8154 59.0872 24.6651 59.6779 25.1706 59.8497C25.375 59.9248 25.8052 59.9893 26.1172 60C26.6012 60 26.8486 59.9141 27.9457 59.345C30.9466 57.7772 31.3661 57.455 31.2585 56.7785C31.1294 55.9302 30.4303 52.3436 30.1722 51.2054C29.871 49.8309 29.6774 49.4228 29.1503 49.0792C28.6233 48.7141 28.0855 48.7678 26.8916 49.2725Z" fill="white"/>
<path d="M31.8792 50.9255C31.6534 51.2691 31.7286 51.7845 32.2234 53.4382C32.6644 54.8772 32.7827 55.1241 33.256 55.5859C33.5787 55.908 33.654 55.9295 34.1487 55.8973C34.579 55.8543 35.02 55.661 36.2999 54.9416C37.1927 54.4476 38.0962 53.9429 38.3221 53.8248C38.5479 53.7067 38.8599 53.5134 39.0104 53.3845C39.2471 53.202 39.2686 53.1376 39.161 52.9335C38.9351 52.504 38.2575 52.2355 34.7618 51.1832C32.7397 50.5711 32.1481 50.5174 31.8792 50.9255Z" fill="white"/>
</g>
<defs>
<clipPath id="clip0_256_5">
<rect width="53" height="60" fill="white"/>
</clipPath>
</defs>
</svg>
