<svg width="30" height="30" viewBox="0 0 30 30" fill="none" xmlns="http://www.w3.org/2000/svg">
<path d="M1 7.07227C1.00021 5.30697 3.12032 4.40789 4.38965 5.63477L14.293 15.207L24.3594 25.6094C25.5872 26.8785 24.6878 29 22.9219 29H3C1.89543 29 1 28.1046 1 27V7.07227Z" fill="#D9D9D9" stroke="white" stroke-width="2"/>
<path d="M7.29289 21.2929C6.90237 21.6834 6.90237 22.3166 7.29289 22.7071C7.68342 23.0976 8.31658 23.0976 8.70711 22.7071L8 22L7.29289 21.2929ZM26 5C26 4.44772 25.5523 4 25 4H16C15.4477 4 15 4.44772 15 5C15 5.55229 15.4477 6 16 6H24V14C24 14.5523 24.4477 15 25 15C25.5523 15 26 14.5523 26 14V5ZM8 22L8.70711 22.7071L25.7071 5.70711L25 5L24.2929 4.29289L7.29289 21.2929L8 22Z" fill="white"/>
</svg>
