<svg width="46" height="46" viewBox="0 0 46 46" fill="none" xmlns="http://www.w3.org/2000/svg">
<circle cx="23" cy="23" r="23" fill="#4958E0"/>
<path d="M11.9393 31.9393C11.3536 32.5251 11.3536 33.4749 11.9393 34.0607C12.5251 34.6464 13.4749 34.6464 14.0607 34.0607L11.9393 31.9393ZM34.299 13.201C34.299 12.3726 33.6274 11.701 32.799 11.701L19.299 11.701C18.4706 11.701 17.799 12.3726 17.799 13.201C17.799 14.0294 18.4706 14.701 19.299 14.701H31.299V26.701C31.299 27.5294 31.9706 28.201 32.799 28.201C33.6274 28.201 34.299 27.5294 34.299 26.701L34.299 13.201ZM14.0607 34.0607L33.8596 14.2617L31.7383 12.1404L11.9393 31.9393L14.0607 34.0607Z" fill="white"/>
</svg>
