<svg width="16" height="16" viewBox="0 0 16 16" fill="none" xmlns="http://www.w3.org/2000/svg">
<path d="M9.0943 8.00992L15.2735 1.86442C15.5698 1.57117 15.5698 1.09642 15.2735 0.803922C14.978 0.510672 14.498 0.510672 14.2025 0.803922L8.02855 6.94417L1.79755 0.712422C1.50205 0.416172 1.02205 0.416172 0.726547 0.712422C0.431047 1.00942 0.431047 1.49017 0.726547 1.78642L6.95305 8.01367L0.704047 14.2282C0.408547 14.5214 0.408547 14.9962 0.704047 15.2887C0.999547 15.5819 1.47955 15.5819 1.77505 15.2887L8.0188 9.07942L14.225 15.2864C14.5205 15.5827 15.0005 15.5827 15.296 15.2864C15.5915 14.9894 15.5915 14.5087 15.296 14.2124L9.0943 8.00992Z" fill="white"/>
</svg>
